<svg width="56" height="56" viewBox="0 0 56 56" fill="none" xmlns="http://www.w3.org/2000/svg">
<g clip-path="url(#clip0)">
<path d="M41.9375 19.5C41.9375 14.8038 38.1338 11 33.4375 11C28.7412 11 24.9375 14.8038 24.9375 19.5C24.9375 24.1962 28.7412 28 33.4375 28C38.1338 28 41.9375 24.1962 41.9375 19.5ZM10.0625 16.3125C8.8889 16.3125 7.9375 17.2639 7.9375 18.4375V23.75H2.625C1.45139 23.75 0.5 24.7014 0.5 25.875C0.5 27.0486 1.45139 28 2.625 28H7.9375V33.3125C7.9375 34.4861 8.8889 35.4375 10.0625 35.4375C11.2361 35.4375 12.1875 34.4861 12.1875 33.3125V28H17.5C18.6736 28 19.625 27.0486 19.625 25.875C19.625 24.7014 18.6736 23.75 17.5 23.75H12.1875V18.4375C12.1875 17.2639 11.2361 16.3125 10.0625 16.3125ZM16.4375 40.75V42.875C16.4375 44.0486 17.3889 45 18.5625 45H48.3125C49.4861 45 50.4375 44.0486 50.4375 42.875V40.75C50.4375 33.3125 39.1113 31.1875 33.4375 31.1875C27.7638 31.1875 16.4375 33.3125 16.4375 40.75Z" fill="#333333"/>
</g>
<defs>
<clipPath id="clip0">
<rect width="56" height="56" fill="white"/>
</clipPath>
</defs>
</svg>
