<svg width="56" height="56" viewBox="0 0 56 56" fill="none" xmlns="http://www.w3.org/2000/svg">
<path d="M42.8167 13.4379L48.3619 18.968C48.9496 19.5541 48.9496 20.5061 48.3619 21.0922L42.8167 26.6222C42.2301 27.2072 41.2803 27.2059 40.6953 26.6193C40.1104 26.0328 40.1117 25.083 40.6982 24.498L43.704 21.5H35.6C32.9436 21.5 30.845 23.3859 26.6652 28.9995C30.8452 34.6143 32.9437 36.5 35.6 36.5H43.644L40.6982 33.5621C40.1117 32.9771 40.1104 32.0274 40.6953 31.4408C41.2803 30.8542 42.2301 30.8529 42.8167 31.4379L48.3619 36.968C48.9496 37.5541 48.9496 38.5061 48.3619 39.0922L42.8167 44.6222C42.2301 45.2072 41.2803 45.2059 40.6953 44.6193C40.1104 44.0328 40.1117 43.083 40.6982 42.498L43.704 39.5H35.6C31.7268 39.5 29.2801 37.4526 24.8006 31.5159C20.3199 37.4526 17.8732 39.5 14 39.5H8C7.17157 39.5 6.5 38.8284 6.5 38C6.5 37.1716 7.17157 36.5 8 36.5H14C16.6563 36.5 18.7548 34.6143 22.934 29.0015C18.755 23.3859 16.6564 21.5 14 21.5H8C7.17157 21.5 6.5 20.8284 6.5 20C6.5 19.1716 7.17157 18.5 8 18.5H14C17.8732 18.5 20.3199 20.5474 24.7994 26.4841C29.2801 20.5474 31.7268 18.5 35.6 18.5H43.644L40.6982 15.5621C40.1117 14.9771 40.1104 14.0274 40.6953 13.4408C41.2803 12.8542 42.2301 12.8529 42.8167 13.4379Z" fill="#333333"/>
</svg>
