<svg width="56" height="56" viewBox="0 0 56 56" fill="none" xmlns="http://www.w3.org/2000/svg">
<path d="M27.6172 4.0203L27.8095 4.05488L27.9651 4.09567C29.0862 4.43235 29.7718 5.58436 29.5108 6.74454C29.3688 7.37483 29.1778 7.89094 28.9075 8.30838C24.4174 15.2416 25.1818 20.0824 28.5107 20.5748C31.6083 21.033 33.4293 19.0353 33.0486 14.7302L33.0207 14.4461L32.7534 11.9564C32.6998 11.4516 32.8232 10.944 33.1026 10.5202C33.7681 9.51035 35.1263 9.23125 36.1361 9.89676C37.575 10.845 39.2113 12.4837 41.0893 14.826C46.4287 21.4854 48.0718 27.2822 47.9973 33.225C47.8595 44.2197 39.6818 52 28.4987 52C17.2678 52 9 44.1737 9 33.1974C9.05666 23.5467 14.2411 13.0546 23.9543 5.91678L24.5672 5.47419L25.9754 4.44272C26.4487 4.09178 27.0384 3.942 27.6172 4.0203Z" fill="#333333"/>
</svg>
