<svg width="56" height="56" viewBox="0 0 56 56" fill="none" xmlns="http://www.w3.org/2000/svg">
<path d="M46 42C47.1046 42 48 42.8954 48 44C48 45.1046 47.1046 46 46 46H10C8.89543 46 8 45.1046 8 44C8 42.8954 8.89543 42 10 42H46ZM44 12C45.1046 12 46 12.8954 46 14V24C46 25.1046 45.1046 26 44 26C42.8954 26 42 25.1046 42 24V18.828L29.4142 31.4142C28.6932 32.1352 27.5588 32.1906 26.7742 31.5806L26.5858 31.4142L22 26.8284L13.4142 35.4142C12.6332 36.1953 11.3668 36.1953 10.5858 35.4142C9.80474 34.6332 9.80474 33.3668 10.5858 32.5858L20.5858 22.5858C21.3668 21.8047 22.6332 21.8047 23.4142 22.5858L28 27.1716L39.168 16H34C32.9743 16 32.129 15.2279 32.0135 14.2332L32 14C32 12.8954 32.8954 12 34 12H44Z" fill="white"/>
</svg>
