<svg width="56" height="56" viewBox="0 0 56 56" fill="none" xmlns="http://www.w3.org/2000/svg">
<g opacity="0.34">
<path d="M37 30C40.1711 30 42.8498 32.1087 43.7102 35.0003L48 35C49.1046 35 50 35.8954 50 37C50 38.1046 49.1046 39 48 39L43.7096 39.0017C42.8485 41.8923 40.1704 44 37 44C33.8296 44 31.1515 41.8923 30.2904 39.0017L8 39C6.89543 39 6 38.1046 6 37C6 35.8954 6.89543 35 8 35L30.2898 35.0003C31.1502 32.1087 33.8289 30 37 30ZM37 33.5C35.067 33.5 33.5 35.067 33.5 37C33.5 38.933 35.067 40.5 37 40.5C38.933 40.5 40.5 38.933 40.5 37C40.5 35.067 38.933 33.5 37 33.5ZM21 12C24.1711 12 26.8498 14.1087 27.7102 17.0003L48 17C49.1046 17 50 17.8954 50 19C50 20.1046 49.1046 21 48 21L27.7096 21.0017C26.8485 23.8923 24.1704 26 21 26C17.8296 26 15.1515 23.8923 14.2904 21.0017L8 21C6.89543 21 6 20.1046 6 19C6 17.8954 6.89543 17 8 17L14.2898 17.0003C15.1502 14.1087 17.8289 12 21 12ZM21 15.5C19.067 15.5 17.5 17.067 17.5 19C17.5 20.933 19.067 22.5 21 22.5C22.933 22.5 24.5 20.933 24.5 19C24.5 17.067 22.933 15.5 21 15.5Z" fill="#222222"/>
</g>
</svg>
