<svg width="56" height="56" viewBox="0 0 56 56" fill="none" xmlns="http://www.w3.org/2000/svg">
<g opacity="0.34">
  <path d="M43.1725 12.6C43.4155 12.6 43.6525 12.6755 43.8507 12.8161L51.2295 18.0482C51.7578 18.4228 51.8823 19.1546 51.5078 19.6829C51.4314 19.7906 51.3373 19.8847 51.2295 19.9611L43.8507 25.1933C43.3225 25.5678 42.5906 25.4432 42.216 24.915C42.0755 24.7168 42 24.4798 42 24.2368V21H33.6C31.2157 21 29.2128 22.7645 25.2898 27.999C29.0819 33.0606 31.0797 34.8779 33.3616 34.994L33.6 35H42V31.7632C42 31.1156 42.5249 30.5907 43.1725 30.5907C43.4155 30.5907 43.6525 30.6662 43.8507 30.8067L51.2295 36.0389C51.7578 36.4134 51.8823 37.1453 51.5078 37.6735C51.4314 37.7813 51.3373 37.8754 51.2295 37.9518L43.8507 43.1839C43.3225 43.5585 42.5906 43.4339 42.216 42.9057C42.0755 42.7074 42 42.4705 42 42.2275V39H33.6C29.6238 39 27.1379 37.0208 22.8011 31.344C18.4621 37.0208 15.9762 39 12 39H6C4.89543 39 4 38.1046 4 37C4 35.8954 4.89543 35 6 35H12C14.384 35 16.3867 33.2359 20.3087 28.003C16.5186 22.9399 14.5207 21.1221 12.2384 21.006L12 21H6C4.89543 21 4 20.1046 4 19C4 17.9743 4.77208 17.129 5.76676 17.0135L6 17H12C15.9762 17 18.4621 18.9792 22.7989 24.656C27.1379 18.9792 29.6238 17 33.6 17H42V13.7725C42 13.125 42.5249 12.6 43.1725 12.6Z" fill="#222222"/>
</g>
</svg>
