<svg width="56" height="56" viewBox="0 0 56 56" fill="none" xmlns="http://www.w3.org/2000/svg">
<g opacity="0.34">
<path d="M28.0002 38.3564L39.3802 45.3073C39.4727 45.3638 39.5837 45.3814 39.6891 45.3562C39.9093 45.3037 40.0453 45.0825 39.9928 44.8623L36.8987 31.8913L47.026 23.2162C47.1083 23.1457 47.1593 23.0455 47.168 22.9376C47.1861 22.7118 47.0178 22.5142 46.792 22.4961L33.4998 21.4305L28.3788 9.11808C28.3372 9.01806 28.2577 8.93857 28.1577 8.89697C27.9486 8.81001 27.7086 8.90901 27.6216 9.11808L22.5006 21.4305L9.20837 22.4961C9.10039 22.5048 9.00023 22.5558 8.92976 22.6381C8.78245 22.81 8.80244 23.0689 8.97441 23.2162L19.1017 31.8913L16.0077 44.8623C15.9825 44.9677 16.0001 45.0787 16.0566 45.1711C16.1746 45.3644 16.4269 45.4253 16.6202 45.3073L28.0002 38.3564ZM28.0002 43.0436L18.7052 48.7209C16.6267 49.9905 13.9125 49.3347 12.643 47.2561C12.0356 46.2618 11.8465 45.0675 12.1168 43.9342L14.644 33.3397L6.37218 26.254C4.52246 24.6695 4.30745 21.8856 5.89193 20.0358C6.64992 19.151 7.7273 18.602 8.88872 18.5089L19.7456 17.6385L23.9284 7.58196C24.8637 5.33314 27.445 4.26835 29.6938 5.20369C30.7696 5.65114 31.6246 6.50615 32.0721 7.58196L36.2548 17.6385L47.1117 18.5089C49.5395 18.7035 51.3498 20.8294 51.1552 23.2572C51.0621 24.4186 50.5131 25.496 49.6282 26.254L41.3564 33.3397L43.8836 43.9342C44.4487 46.3033 42.9863 48.6819 40.6172 49.2471C39.4838 49.5174 38.2896 49.3283 37.2952 48.7209L28.0002 43.0436Z" fill="#222222"/>
</g>
</svg>
