<svg width="109" height="105" viewBox="0 0 109 105" fill="none" xmlns="http://www.w3.org/2000/svg">
<g clip-path="url(#clip0)">
<path d="M109 105H0.451904V0H109V105Z" fill="#AEAEAE"/>
<path d="M40.1281 34.596C31.1448 42.6155 37.7887 47.8375 47.0531 46.8118V59.4938C32.7356 60.8926 20.8514 64.1564 10.6516 68.819C39.3795 57.9086 69.417 57.4424 100.953 68.819C88.601 63.3171 75.8742 60.2399 62.6793 59.3073V42.8953C71.8499 39.6314 84.1087 25.5506 66.0482 24.8047C77.9321 27.5089 72.1304 34.3163 62.6793 39.7248V19.1163L56.2236 24.2451V42.3358L55.1002 42.802V10.6306L47.0531 16.2256V44.3872C34.8878 45.413 35.2621 40.9369 40.1281 34.596ZM55.1002 45.3198L56.2236 44.9468V59.2141H55.1002V45.3198Z" fill="#FEFEFE"/>
<path d="M13.5525 85.977C13.5525 86.0702 13.4591 86.1636 13.4591 86.2568C13.4591 86.1636 13.3655 86.0702 13.3655 85.977L10.7453 80.1023H7.93799L12.1489 88.8678C11.7746 89.5205 11.4939 90.0801 11.1196 90.3598C10.4646 90.9193 9.6224 90.826 8.87379 90.3598L8.49941 90.1732V92.6911L8.6866 92.7843C9.15443 92.9708 9.716 93.0641 10.371 93.0641C11.2132 93.0641 11.9618 92.7844 12.7104 92.1315C13.3655 91.5721 14.1141 90.4531 14.7691 88.9611L18.6992 80.1955H16.0791L13.5525 85.977Z" fill="#FEFEFE"/>
<path d="M27.308 85.1376H21.9741V80.0088H19.4475V92.6909H21.9741V87.3756H27.308V92.6909H29.7409V80.0088H27.308V85.1376Z" fill="#FEFEFE"/>
<path d="M34.7009 88.8676C34.7009 88.5879 34.7009 88.3082 34.7009 88.0283V80.0088H32.2678V92.5977H34.888L40.6897 83.7388C40.6897 83.9253 40.6897 84.1118 40.6897 84.2983V92.5977H43.1228V80.0088H40.409L34.7009 88.8676Z" fill="#FEFEFE"/>
<path d="M51.5438 79.8225C49.6719 79.8225 48.082 80.4753 46.8655 81.6874C45.6491 82.8997 44.9937 84.5783 44.9937 86.5365C44.9937 88.4014 45.5546 89.8935 46.6781 91.1058C47.8015 92.2248 49.2984 92.8775 51.0758 92.8775C52.4798 92.8775 53.6962 92.5978 54.6322 92.1316L54.7252 92.0382V89.6138L54.3517 89.8935C53.5087 90.453 52.5728 90.6396 51.4508 90.6396C50.2344 90.6396 49.2984 90.2665 48.643 89.5204C47.8945 88.7745 47.5195 87.7487 47.5195 86.4432C47.5195 85.1377 47.8945 84.0187 48.643 83.2728C49.3914 82.4335 50.4204 82.0605 51.7313 82.0605C52.6673 82.0605 53.5087 82.247 54.3517 82.8064L54.7252 82.9929V80.4753L54.6322 80.3819C53.6962 80.0089 52.6673 79.8225 51.5438 79.8225Z" fill="#FEFEFE"/>
<path d="M55.2876 82.2469H58.8425V92.6909H61.2753V82.2469H64.8316V80.0088H55.2876V82.2469Z" fill="#FEFEFE"/>
<path d="M68.5755 82.1536H69.7919C71.2888 82.1536 72.0373 82.8063 72.0373 84.1118C72.0373 84.7646 71.8498 85.3241 71.4763 85.6038C71.1013 85.9769 70.4473 86.1634 69.6044 86.1634H68.5755V82.1536ZM70.0724 80.0088H66.1426V92.5977H68.6685V88.2148H70.0724C71.4763 88.2148 72.6928 87.8418 73.5342 87.0027C74.3772 86.2566 74.8451 85.2308 74.8451 83.9253C74.8451 82.6198 74.4702 81.6873 73.6287 81.0346C72.6928 80.3818 71.4763 80.0088 70.0724 80.0088Z" fill="#FEFEFE"/>
<path d="M84.1088 89.5204C83.4534 90.2665 82.6119 90.6396 81.4884 90.6396C80.4595 90.6396 79.6166 90.2665 78.9611 89.5204C78.3071 88.7745 78.0266 87.6555 78.0266 86.4432C78.0266 85.1377 78.3071 84.1119 79.0556 83.2728C79.711 82.5267 80.5525 82.0605 81.5815 82.0605C82.7049 82.0605 83.4534 82.4335 84.1088 83.1794C84.7628 83.9255 85.0448 85.0445 85.0448 86.4432C85.0448 87.7487 84.7628 88.7745 84.1088 89.5204ZM81.6759 79.8225C79.804 79.8225 78.2126 80.4753 77.0907 81.6874C75.9672 82.8997 75.4062 84.4849 75.4062 86.5365C75.4062 88.4014 75.9672 89.9868 77.0907 91.1058C78.2126 92.318 79.6166 92.8775 81.4884 92.8775C83.3603 92.8775 84.8573 92.2248 85.9807 91.1058C87.1027 89.8935 87.6637 88.3083 87.6637 86.2567C87.6637 84.3918 87.1027 82.8064 86.0737 81.6874C84.9503 80.4753 83.4534 79.8225 81.6759 79.8225Z" fill="#FEFEFE"/>
<path d="M92.4364 78.6101C93.0919 79.1695 93.9334 79.4494 94.8693 79.4494C95.8053 79.4494 96.6482 79.1695 97.3022 78.7033C97.9577 78.1439 98.3326 77.4911 98.4256 76.5585V76.2788H96.2732V76.4653C96.1802 76.9316 96.0858 77.2113 95.8053 77.4911C95.5248 77.6775 95.2443 77.864 94.8693 77.864C93.9334 77.864 93.5599 77.3978 93.4654 76.5585V76.372H91.3145V76.6518C91.4075 77.3978 91.7824 78.0505 92.4364 78.6101Z" fill="#FEFEFE"/>
<path d="M97.584 80.0088L91.8753 88.8676C91.8753 88.5879 91.8753 88.3082 91.8753 88.0283V80.0088H89.4424V92.5977H92.0627L97.8644 83.7388C97.8644 83.9253 97.8644 84.1118 97.8644 84.2983V92.5977H100.297V80.0088H97.584Z" fill="#FEFEFE"/>
</g>
<defs>
<clipPath id="clip0">
<rect width="109" height="105" fill="white"/>
</clipPath>
</defs>
</svg>
