<svg width="32" height="32" viewBox="0 0 32 32" fill="none" xmlns="http://www.w3.org/2000/svg">
<path fill-rule="evenodd" clip-rule="evenodd" d="M16 2C8.26802 2 2 8.26801 2 16C2 23.732 8.26801 30 16 30C23.732 30 30 23.732 30 16C30 8.26801 23.732 2 16 2ZM16 -1.39876e-06C7.16345 -2.17128e-06 2.17128e-06 7.16344 1.39876e-06 16C6.26248e-07 24.8366 7.16344 32 16 32C24.8366 32 32 24.8366 32 16C32 7.16344 24.8366 -6.26248e-07 16 -1.39876e-06Z" fill="#F2F2F2"/>
<path d="M16 13.3017L21.3598 17.7682C21.7841 18.1218 22.4146 18.0644 22.7682 17.6402C23.1218 17.2159 23.0644 16.5853 22.6402 16.2318L16.6402 11.2318C16.2693 10.9227 15.7306 10.9227 15.3598 11.2318L9.35979 16.2318C8.93551 16.5853 8.87819 17.2159 9.23175 17.6402C9.58532 18.0644 10.2159 18.1218 10.6402 17.7682L16 13.3017Z" fill="#F2F2F2"/>
</svg>
