<svg width="32" height="32" viewBox="0 0 32 32" fill="none" xmlns="http://www.w3.org/2000/svg">
<path fill-rule="evenodd" clip-rule="evenodd" d="M16 30C23.732 30 30 23.732 30 16C30 8.26802 23.732 2 16 2C8.26801 2 2 8.26801 2 16C2 23.732 8.26801 30 16 30ZM16 32C24.8366 32 32 24.8366 32 16C32 7.16345 24.8366 4.34256e-06 16 2.79753e-06C7.16344 1.2525e-06 -1.2525e-06 7.16344 -2.79753e-06 16C-4.34256e-06 24.8366 7.16344 32 16 32Z" fill="#222222"/>
<path d="M16 18.6983L10.6402 14.2318C10.2159 13.8782 9.58537 13.9356 9.2318 14.3598C8.87824 14.7841 8.93556 15.4147 9.35984 15.7682L15.3598 20.7682C15.7307 21.0773 16.2694 21.0773 16.6402 20.7682L22.6402 15.7682C23.0645 15.4147 23.1218 14.7841 22.7682 14.3598C22.4147 13.9356 21.7841 13.8782 21.3598 14.2318L16 18.6983Z" fill="#222222"/>
</svg>
