<svg width="24" height="24" viewBox="0 0 24 24" fill="none" xmlns="http://www.w3.org/2000/svg">
<path d="M19.1046 4.89541C19.6318 5.42261 19.6318 6.27739 19.1046 6.80459L13.9095 12L19.1046 17.1954C19.5879 17.6787 19.6282 18.4372 19.2254 18.9664L19.1046 19.1046C18.5774 19.6318 17.7226 19.6318 17.1954 19.1046L12 13.9095L6.80459 19.1046C6.27739 19.6318 5.42261 19.6318 4.89541 19.1046C4.3682 18.5774 4.3682 17.7226 4.89541 17.1954L10.0905 12L4.89541 6.80459C4.41213 6.32132 4.37186 5.5628 4.77459 5.03365L4.89541 4.89541C5.42261 4.3682 6.27739 4.3682 6.80459 4.89541L12 10.0905L17.1954 4.89541C17.7226 4.3682 18.5774 4.3682 19.1046 4.89541Z" fill="#99A2AD"/>
</svg>
