<svg width="48" height="38" viewBox="0 0 48 38" fill="none" xmlns="http://www.w3.org/2000/svg">
<path d="M20.5714 28.0216C20.5714 31.6667 19.7943 34.2638 18.24 35.813C16.7771 37.271 14.2171 38 10.56 38C6.62857 38 3.88571 36.9976 2.33143 34.9928C0.777142 32.8969 0 29.2518 0 24.0576C0 16.9496 1.46286 11.3909 4.38857 7.38129C7.40571 3.28057 11.8857 0.820144 17.8286 0L19.0629 7.51799C16.4114 7.88249 14.3086 8.97601 12.7543 10.7986C11.2914 12.6211 10.3771 15.2638 10.0114 18.7266C10.1943 18.6355 10.3771 18.5899 10.56 18.5899C10.8343 18.5899 11.2457 18.5899 11.7943 18.5899C15.2686 18.5899 17.6 19.2734 18.7886 20.6403C19.9771 22.0072 20.5714 24.4676 20.5714 28.0216ZM48 28.0216C48 31.6667 47.2229 34.2638 45.6686 35.813C44.2057 37.271 41.6457 38 37.9886 38C34.0571 38 31.3143 36.9976 29.76 34.9928C28.2057 32.8969 27.4286 29.2518 27.4286 24.0576C27.4286 16.9496 28.8914 11.3909 31.8171 7.38129C34.8343 3.28057 39.3143 0.820144 45.2571 0L46.4914 7.51799C43.84 7.88249 41.7371 8.97601 40.1829 10.7986C38.72 12.6211 37.8057 15.2638 37.44 18.7266C37.6229 18.6355 37.8057 18.5899 37.9886 18.5899C38.2629 18.5899 38.6743 18.5899 39.2229 18.5899C42.6971 18.5899 45.0286 19.2734 46.2171 20.6403C47.4057 22.0072 48 24.4676 48 28.0216Z" fill="#222222" fill-opacity="0.18"/>
</svg>
