<svg width="67" height="53" viewBox="0 0 67 53" fill="none" xmlns="http://www.w3.org/2000/svg">
<path d="M28.7143 39.0827C28.7143 44.1667 27.6295 47.789 25.46 49.9496C23.4181 51.9832 19.8448 53 14.74 53C9.25238 53 5.42381 51.6019 3.25428 48.8057C1.08476 45.8825 0 40.7986 0 33.554C0 23.6403 2.0419 15.8873 6.12571 10.295C10.3371 4.57554 16.5905 1.14389 24.8857 0L26.6086 10.4856C22.9076 10.994 19.9724 12.5192 17.8029 15.0611C15.761 17.6031 14.4848 21.289 13.9743 26.1187C14.2295 25.9916 14.4848 25.9281 14.74 25.9281C15.1229 25.9281 15.6971 25.9281 16.4629 25.9281C21.3124 25.9281 24.5667 26.8813 26.2257 28.7878C27.8848 30.6942 28.7143 34.1259 28.7143 39.0827ZM67 39.0827C67 44.1667 65.9152 47.789 63.7457 49.9496C61.7038 51.9832 58.1305 53 53.0257 53C47.5381 53 43.7095 51.6019 41.54 48.8057C39.3705 45.8825 38.2857 40.7986 38.2857 33.554C38.2857 23.6403 40.3276 15.8873 44.4114 10.295C48.6229 4.57554 54.8762 1.14389 63.1714 0L64.8943 10.4856C61.1933 10.994 58.2581 12.5192 56.0886 15.0611C54.0467 17.6031 52.7705 21.289 52.26 26.1187C52.5152 25.9916 52.7705 25.9281 53.0257 25.9281C53.4086 25.9281 53.9829 25.9281 54.7486 25.9281C59.5981 25.9281 62.8524 26.8813 64.5114 28.7878C66.1705 30.6942 67 34.1259 67 39.0827Z" fill="#393939"/>
</svg>
